<svg width="315" height="44" viewBox="0 0 315 44" fill="none" xmlns="http://www.w3.org/2000/svg">
<rect x="0.5" y="0.5" width="314" height="43" rx="3.5" fill="white"/>
<rect x="0.5" y="0.5" width="314" height="43" rx="3.5" stroke="#D7DADD"/>
<path d="M22.412 18.537C22.37 18.607 22.3233 18.6607 22.272 18.698C22.2253 18.7307 22.167 18.747 22.097 18.747C22.0177 18.747 21.9243 18.7073 21.817 18.628C21.7097 18.5487 21.5743 18.4623 21.411 18.369C21.2523 18.271 21.0587 18.1823 20.83 18.103C20.606 18.0237 20.333 17.984 20.011 17.984C19.7077 17.984 19.4393 18.026 19.206 18.11C18.9773 18.1893 18.7837 18.299 18.625 18.439C18.471 18.579 18.3543 18.7447 18.275 18.936C18.1957 19.1227 18.156 19.3257 18.156 19.545C18.156 19.825 18.2237 20.0583 18.359 20.245C18.499 20.427 18.681 20.5833 18.905 20.714C19.1337 20.8447 19.3903 20.959 19.675 21.057C19.9643 21.1503 20.2583 21.2483 20.557 21.351C20.8603 21.4537 21.1543 21.5703 21.439 21.701C21.7283 21.827 21.985 21.988 22.209 22.184C22.4377 22.38 22.6197 22.6203 22.755 22.905C22.895 23.1897 22.965 23.5397 22.965 23.955C22.965 24.3937 22.8903 24.8067 22.741 25.194C22.5917 25.5767 22.3723 25.9103 22.083 26.195C21.7983 26.4797 21.446 26.7037 21.026 26.867C20.6107 27.0303 20.137 27.112 19.605 27.112C18.9517 27.112 18.359 26.9953 17.827 26.762C17.295 26.524 16.84 26.2043 16.462 25.803L16.854 25.159C16.8913 25.1077 16.9357 25.0657 16.987 25.033C17.043 24.9957 17.1037 24.977 17.169 24.977C17.2297 24.977 17.2973 25.0027 17.372 25.054C17.4513 25.1007 17.54 25.1613 17.638 25.236C17.736 25.3107 17.848 25.3923 17.974 25.481C18.1 25.5697 18.2423 25.6513 18.401 25.726C18.5643 25.8007 18.7487 25.8637 18.954 25.915C19.1593 25.9617 19.3903 25.985 19.647 25.985C19.969 25.985 20.256 25.9407 20.508 25.852C20.76 25.7633 20.9723 25.6397 21.145 25.481C21.3223 25.3177 21.4577 25.124 21.551 24.9C21.6443 24.676 21.691 24.4263 21.691 24.151C21.691 23.8477 21.621 23.6003 21.481 23.409C21.3457 23.213 21.166 23.0497 20.942 22.919C20.718 22.7883 20.4613 22.6787 20.172 22.59C19.8827 22.4967 19.5887 22.4033 19.29 22.31C18.9913 22.212 18.6973 22.1 18.408 21.974C18.1187 21.848 17.862 21.6847 17.638 21.484C17.414 21.2833 17.232 21.0337 17.092 20.735C16.9567 20.4317 16.889 20.0583 16.889 19.615C16.889 19.2603 16.9567 18.9173 17.092 18.586C17.232 18.2547 17.4327 17.9607 17.694 17.704C17.96 17.4473 18.2843 17.242 18.667 17.088C19.0543 16.934 19.4977 16.857 19.997 16.857C20.557 16.857 21.0657 16.9457 21.523 17.123C21.985 17.3003 22.391 17.557 22.741 17.893L22.412 18.537ZM29.2935 22.681C29.2935 22.3917 29.2515 22.128 29.1675 21.89C29.0882 21.6473 28.9692 21.4397 28.8105 21.267C28.6565 21.0897 28.4675 20.9543 28.2435 20.861C28.0195 20.763 27.7652 20.714 27.4805 20.714C26.8832 20.714 26.4095 20.889 26.0595 21.239C25.7142 21.5843 25.4995 22.065 25.4155 22.681H29.2935ZM30.3015 26.006C30.1475 26.1927 29.9632 26.356 29.7485 26.496C29.5339 26.6313 29.3029 26.7433 29.0555 26.832C28.8129 26.9207 28.5609 26.986 28.2995 27.028C28.0382 27.0747 27.7792 27.098 27.5225 27.098C27.0325 27.098 26.5799 27.0163 26.1645 26.853C25.7539 26.685 25.3969 26.4423 25.0935 26.125C24.7949 25.803 24.5615 25.4063 24.3935 24.935C24.2255 24.4637 24.1415 23.9223 24.1415 23.311C24.1415 22.8163 24.2162 22.3543 24.3655 21.925C24.5195 21.4957 24.7389 21.1247 25.0235 20.812C25.3082 20.4947 25.6559 20.2473 26.0665 20.07C26.4772 19.888 26.9392 19.797 27.4525 19.797C27.8772 19.797 28.2692 19.8693 28.6285 20.014C28.9925 20.154 29.3052 20.3593 29.5665 20.63C29.8325 20.896 30.0402 21.2273 30.1895 21.624C30.3389 22.016 30.4135 22.464 30.4135 22.968C30.4135 23.164 30.3925 23.2947 30.3505 23.36C30.3085 23.4253 30.2292 23.458 30.1125 23.458H25.3735C25.3875 23.906 25.4482 24.2957 25.5555 24.627C25.6675 24.9583 25.8215 25.236 26.0175 25.46C26.2135 25.6793 26.4469 25.845 26.7175 25.957C26.9882 26.0643 27.2915 26.118 27.6275 26.118C27.9402 26.118 28.2085 26.083 28.4325 26.013C28.6612 25.9383 28.8572 25.859 29.0205 25.775C29.1839 25.691 29.3192 25.614 29.4265 25.544C29.5385 25.4693 29.6342 25.432 29.7135 25.432C29.8162 25.432 29.8955 25.4717 29.9515 25.551L30.3015 26.006ZM35.787 23.808C35.213 23.8267 34.723 23.8733 34.317 23.948C33.9157 24.018 33.5867 24.1113 33.33 24.228C33.078 24.3447 32.8937 24.4823 32.777 24.641C32.665 24.7997 32.609 24.977 32.609 25.173C32.609 25.3597 32.6394 25.5207 32.7 25.656C32.7607 25.7913 32.8424 25.9033 32.945 25.992C33.0524 26.076 33.176 26.139 33.316 26.181C33.4607 26.2183 33.6147 26.237 33.778 26.237C33.9974 26.237 34.198 26.216 34.38 26.174C34.562 26.1273 34.7324 26.062 34.891 25.978C35.0544 25.894 35.2084 25.7937 35.353 25.677C35.5024 25.5603 35.647 25.4273 35.787 25.278V23.808ZM31.762 20.91C32.154 20.532 32.5764 20.2497 33.029 20.063C33.4817 19.8763 33.9834 19.783 34.534 19.783C34.9307 19.783 35.283 19.8483 35.591 19.979C35.899 20.1097 36.158 20.2917 36.368 20.525C36.578 20.7583 36.7367 21.0407 36.844 21.372C36.9514 21.7033 37.005 22.0673 37.005 22.464V27H36.452C36.3307 27 36.2374 26.9813 36.172 26.944C36.1067 26.902 36.0554 26.8227 36.018 26.706L35.878 26.034C35.6914 26.2067 35.5094 26.3607 35.332 26.496C35.1547 26.6267 34.968 26.7387 34.772 26.832C34.576 26.9207 34.366 26.9883 34.142 27.035C33.9227 27.0863 33.6777 27.112 33.407 27.112C33.1317 27.112 32.8727 27.0747 32.63 27C32.3874 26.9207 32.175 26.804 31.993 26.65C31.8157 26.496 31.6734 26.3023 31.566 26.069C31.4634 25.831 31.412 25.551 31.412 25.229C31.412 24.949 31.489 24.6807 31.643 24.424C31.797 24.1627 32.0467 23.9317 32.392 23.731C32.7374 23.5303 33.1877 23.367 33.743 23.241C34.2984 23.1103 34.9797 23.0357 35.787 23.017V22.464C35.787 21.9133 35.668 21.498 35.43 21.218C35.192 20.9333 34.8444 20.791 34.387 20.791C34.079 20.791 33.82 20.8307 33.61 20.91C33.4047 20.9847 33.225 21.071 33.071 21.169C32.9217 21.2623 32.791 21.3487 32.679 21.428C32.5717 21.5027 32.4644 21.54 32.357 21.54C32.273 21.54 32.2007 21.519 32.14 21.477C32.0794 21.4303 32.028 21.3743 31.986 21.309L31.762 20.91ZM40.086 21.33C40.31 20.8447 40.5853 20.4667 40.912 20.196C41.2387 19.9207 41.6377 19.783 42.109 19.783C42.2583 19.783 42.4007 19.7993 42.536 19.832C42.676 19.8647 42.7997 19.916 42.907 19.986L42.816 20.917C42.788 21.0337 42.718 21.092 42.606 21.092C42.5407 21.092 42.445 21.078 42.319 21.05C42.193 21.022 42.0507 21.008 41.892 21.008C41.668 21.008 41.4673 21.0407 41.29 21.106C41.1173 21.1713 40.961 21.2693 40.821 21.4C40.6857 21.526 40.562 21.6847 40.45 21.876C40.3427 22.0627 40.2447 22.2773 40.156 22.52V27H38.903V19.909H39.617C39.7523 19.909 39.8457 19.9347 39.897 19.986C39.9483 20.0373 39.9833 20.126 40.002 20.252L40.086 21.33ZM48.6505 21.169C48.6132 21.2203 48.5758 21.26 48.5385 21.288C48.5012 21.316 48.4498 21.33 48.3845 21.33C48.3145 21.33 48.2375 21.302 48.1535 21.246C48.0695 21.1853 47.9645 21.12 47.8385 21.05C47.7172 20.98 47.5655 20.917 47.3835 20.861C47.2062 20.8003 46.9868 20.77 46.7255 20.77C46.3755 20.77 46.0675 20.833 45.8015 20.959C45.5355 21.0803 45.3115 21.2577 45.1295 21.491C44.9522 21.7243 44.8168 22.0067 44.7235 22.338C44.6348 22.6693 44.5905 23.0403 44.5905 23.451C44.5905 23.8803 44.6395 24.263 44.7375 24.599C44.8355 24.9303 44.9732 25.2103 45.1505 25.439C45.3325 25.663 45.5495 25.8357 45.8015 25.957C46.0582 26.0737 46.3452 26.132 46.6625 26.132C46.9658 26.132 47.2155 26.097 47.4115 26.027C47.6075 25.9523 47.7685 25.8707 47.8945 25.782C48.0252 25.6933 48.1325 25.614 48.2165 25.544C48.3052 25.4693 48.3915 25.432 48.4755 25.432C48.5782 25.432 48.6575 25.4717 48.7135 25.551L49.0635 26.006C48.9095 26.1973 48.7345 26.3607 48.5385 26.496C48.3425 26.6313 48.1302 26.7457 47.9015 26.839C47.6775 26.9277 47.4418 26.993 47.1945 27.035C46.9472 27.077 46.6952 27.098 46.4385 27.098C45.9952 27.098 45.5822 27.0163 45.1995 26.853C44.8215 26.6897 44.4925 26.454 44.2125 26.146C43.9325 25.8333 43.7132 25.4507 43.5545 24.998C43.3958 24.5453 43.3165 24.0297 43.3165 23.451C43.3165 22.9237 43.3888 22.436 43.5335 21.988C43.6828 21.54 43.8975 21.155 44.1775 20.833C44.4622 20.5063 44.8098 20.252 45.2205 20.07C45.6358 19.888 46.1118 19.797 46.6485 19.797C47.1478 19.797 47.5865 19.8787 47.9645 20.042C48.3472 20.2007 48.6855 20.427 48.9795 20.721L48.6505 21.169ZM51.6541 20.854C51.9574 20.532 52.2934 20.2753 52.6621 20.084C53.0307 19.8927 53.4554 19.797 53.9361 19.797C54.3234 19.797 54.6641 19.8623 54.9581 19.993C55.2567 20.119 55.5041 20.301 55.7001 20.539C55.9007 20.7723 56.0524 21.0547 56.1551 21.386C56.2577 21.7173 56.3091 22.0837 56.3091 22.485V27H55.0561V22.485C55.0561 21.9483 54.9324 21.533 54.6851 21.239C54.4424 20.9403 54.0714 20.791 53.5721 20.791C53.2034 20.791 52.8581 20.8797 52.5361 21.057C52.2187 21.2343 51.9247 21.4747 51.6541 21.778V27H50.4011V16.689H51.6541V20.854ZM66.7247 21.169C66.6874 21.2203 66.6501 21.26 66.6127 21.288C66.5754 21.316 66.5241 21.33 66.4587 21.33C66.3887 21.33 66.3117 21.302 66.2277 21.246C66.1437 21.1853 66.0387 21.12 65.9127 21.05C65.7914 20.98 65.6397 20.917 65.4577 20.861C65.2804 20.8003 65.0611 20.77 64.7997 20.77C64.4497 20.77 64.1417 20.833 63.8757 20.959C63.6097 21.0803 63.3857 21.2577 63.2037 21.491C63.0264 21.7243 62.8911 22.0067 62.7977 22.338C62.7091 22.6693 62.6647 23.0403 62.6647 23.451C62.6647 23.8803 62.7137 24.263 62.8117 24.599C62.9097 24.9303 63.0474 25.2103 63.2247 25.439C63.4067 25.663 63.6237 25.8357 63.8757 25.957C64.1324 26.0737 64.4194 26.132 64.7367 26.132C65.0401 26.132 65.2897 26.097 65.4857 26.027C65.6817 25.9523 65.8427 25.8707 65.9687 25.782C66.0994 25.6933 66.2067 25.614 66.2907 25.544C66.3794 25.4693 66.4657 25.432 66.5497 25.432C66.6524 25.432 66.7317 25.4717 66.7877 25.551L67.1377 26.006C66.9837 26.1973 66.8087 26.3607 66.6127 26.496C66.4167 26.6313 66.2044 26.7457 65.9757 26.839C65.7517 26.9277 65.5161 26.993 65.2687 27.035C65.0214 27.077 64.7694 27.098 64.5127 27.098C64.0694 27.098 63.6564 27.0163 63.2737 26.853C62.8957 26.6897 62.5667 26.454 62.2867 26.146C62.0067 25.8333 61.7874 25.4507 61.6287 24.998C61.4701 24.5453 61.3907 24.0297 61.3907 23.451C61.3907 22.9237 61.4631 22.436 61.6077 21.988C61.7571 21.54 61.9717 21.155 62.2517 20.833C62.5364 20.5063 62.8841 20.252 63.2947 20.07C63.7101 19.888 64.1861 19.797 64.7227 19.797C65.2221 19.797 65.6607 19.8787 66.0387 20.042C66.4214 20.2007 66.7597 20.427 67.0537 20.721L66.7247 21.169ZM71.3412 19.797C71.8592 19.797 72.3259 19.8833 72.7412 20.056C73.1566 20.2287 73.5112 20.4737 73.8052 20.791C74.0992 21.1083 74.3232 21.4933 74.4772 21.946C74.6359 22.394 74.7152 22.8957 74.7152 23.451C74.7152 24.011 74.6359 24.515 74.4772 24.963C74.3232 25.411 74.0992 25.7937 73.8052 26.111C73.5112 26.4283 73.1566 26.6733 72.7412 26.846C72.3259 27.014 71.8592 27.098 71.3412 27.098C70.8186 27.098 70.3472 27.014 69.9272 26.846C69.5119 26.6733 69.1572 26.4283 68.8632 26.111C68.5692 25.7937 68.3429 25.411 68.1842 24.963C68.0302 24.515 67.9532 24.011 67.9532 23.451C67.9532 22.8957 68.0302 22.394 68.1842 21.946C68.3429 21.4933 68.5692 21.1083 68.8632 20.791C69.1572 20.4737 69.5119 20.2287 69.9272 20.056C70.3472 19.8833 70.8186 19.797 71.3412 19.797ZM71.3412 26.125C72.0412 26.125 72.5639 25.8917 72.9092 25.425C73.2546 24.9537 73.4272 24.298 73.4272 23.458C73.4272 22.6133 73.2546 21.9553 72.9092 21.484C72.5639 21.0127 72.0412 20.777 71.3412 20.777C70.9866 20.777 70.6762 20.8377 70.4102 20.959C70.1489 21.0803 69.9296 21.2553 69.7522 21.484C69.5796 21.7127 69.4489 21.995 69.3602 22.331C69.2762 22.6623 69.2342 23.038 69.2342 23.458C69.2342 24.298 69.4069 24.9537 69.7522 25.425C70.1022 25.8917 70.6319 26.125 71.3412 26.125ZM82.1266 19.909V27H81.3846C81.2073 27 81.0953 26.9137 81.0486 26.741L80.9506 25.978C80.6426 26.3187 80.2973 26.594 79.9146 26.804C79.5319 27.0093 79.0933 27.112 78.5986 27.112C78.2113 27.112 77.8683 27.049 77.5696 26.923C77.2756 26.7923 77.0283 26.6103 76.8276 26.377C76.6269 26.1437 76.4753 25.8613 76.3726 25.53C76.2746 25.1987 76.2256 24.8323 76.2256 24.431V19.909H77.4716V24.431C77.4716 24.9677 77.5929 25.383 77.8356 25.677C78.0829 25.971 78.4586 26.118 78.9626 26.118C79.3313 26.118 79.6743 26.0317 79.9916 25.859C80.3136 25.6817 80.6099 25.439 80.8806 25.131V19.909H82.1266ZM85.2852 21.33C85.5092 20.8447 85.7846 20.4667 86.1112 20.196C86.4379 19.9207 86.8369 19.783 87.3082 19.783C87.4576 19.783 87.5999 19.7993 87.7352 19.832C87.8752 19.8647 87.9989 19.916 88.1062 19.986L88.0152 20.917C87.9872 21.0337 87.9172 21.092 87.8052 21.092C87.7399 21.092 87.6442 21.078 87.5182 21.05C87.3922 21.022 87.2499 21.008 87.0912 21.008C86.8672 21.008 86.6666 21.0407 86.4892 21.106C86.3166 21.1713 86.1602 21.2693 86.0202 21.4C85.8849 21.526 85.7612 21.6847 85.6492 21.876C85.5419 22.0627 85.4439 22.2773 85.3552 22.52V27H84.1022V19.909H84.8162C84.9516 19.909 85.0449 19.9347 85.0962 19.986C85.1476 20.0373 85.1826 20.126 85.2012 20.252L85.2852 21.33ZM93.2908 21.078C93.2348 21.1807 93.1485 21.232 93.0318 21.232C92.9618 21.232 92.8825 21.2063 92.7938 21.155C92.7052 21.1037 92.5955 21.0477 92.4648 20.987C92.3388 20.9217 92.1872 20.8633 92.0098 20.812C91.8325 20.756 91.6225 20.728 91.3798 20.728C91.1698 20.728 90.9808 20.756 90.8128 20.812C90.6448 20.8633 90.5002 20.9357 90.3788 21.029C90.2622 21.1223 90.1712 21.232 90.1058 21.358C90.0452 21.4793 90.0148 21.6123 90.0148 21.757C90.0148 21.939 90.0662 22.0907 90.1688 22.212C90.2762 22.3333 90.4162 22.4383 90.5888 22.527C90.7615 22.6157 90.9575 22.695 91.1768 22.765C91.3962 22.8303 91.6202 22.9027 91.8488 22.982C92.0822 23.0567 92.3085 23.1407 92.5278 23.234C92.7472 23.3273 92.9432 23.444 93.1158 23.584C93.2885 23.724 93.4262 23.8967 93.5288 24.102C93.6362 24.3027 93.6898 24.5453 93.6898 24.83C93.6898 25.1567 93.6315 25.46 93.5148 25.74C93.3982 26.0153 93.2255 26.2557 92.9968 26.461C92.7682 26.6617 92.4882 26.8203 92.1568 26.937C91.8255 27.0537 91.4428 27.112 91.0088 27.112C90.5142 27.112 90.0662 27.0327 89.6648 26.874C89.2635 26.7107 88.9228 26.503 88.6428 26.251L88.9368 25.775C88.9742 25.7143 89.0185 25.6677 89.0698 25.635C89.1212 25.6023 89.1865 25.586 89.2658 25.586C89.3498 25.586 89.4385 25.6187 89.5318 25.684C89.6252 25.7493 89.7372 25.8217 89.8678 25.901C90.0032 25.9803 90.1665 26.0527 90.3578 26.118C90.5492 26.1833 90.7872 26.216 91.0718 26.216C91.3145 26.216 91.5268 26.1857 91.7088 26.125C91.8908 26.0597 92.0425 25.9733 92.1638 25.866C92.2852 25.7587 92.3738 25.635 92.4298 25.495C92.4905 25.355 92.5208 25.2057 92.5208 25.047C92.5208 24.851 92.4672 24.69 92.3598 24.564C92.2572 24.4333 92.1195 24.3237 91.9468 24.235C91.7742 24.1417 91.5758 24.0623 91.3518 23.997C91.1325 23.927 90.9062 23.8547 90.6728 23.78C90.4442 23.7053 90.2178 23.6213 89.9938 23.528C89.7745 23.43 89.5785 23.3087 89.4058 23.164C89.2332 23.0193 89.0932 22.842 88.9858 22.632C88.8832 22.4173 88.8318 22.1583 88.8318 21.855C88.8318 21.5843 88.8878 21.3253 88.9998 21.078C89.1118 20.826 89.2752 20.6067 89.4898 20.42C89.7045 20.2287 89.9682 20.077 90.2808 19.965C90.5935 19.853 90.9505 19.797 91.3518 19.797C91.8185 19.797 92.2362 19.8717 92.6048 20.021C92.9782 20.1657 93.3002 20.3663 93.5708 20.623L93.2908 21.078ZM99.9635 22.681C99.9635 22.3917 99.9215 22.128 99.8375 21.89C99.7581 21.6473 99.6391 21.4397 99.4805 21.267C99.3265 21.0897 99.1375 20.9543 98.9135 20.861C98.6895 20.763 98.4351 20.714 98.1505 20.714C97.5531 20.714 97.0795 20.889 96.7295 21.239C96.3841 21.5843 96.1695 22.065 96.0855 22.681H99.9635ZM100.971 26.006C100.817 26.1927 100.633 26.356 100.418 26.496C100.204 26.6313 99.9728 26.7433 99.7255 26.832C99.4828 26.9207 99.2308 26.986 98.9695 27.028C98.7081 27.0747 98.4491 27.098 98.1925 27.098C97.7025 27.098 97.2498 27.0163 96.8345 26.853C96.4238 26.685 96.0668 26.4423 95.7635 26.125C95.4648 25.803 95.2315 25.4063 95.0635 24.935C94.8955 24.4637 94.8115 23.9223 94.8115 23.311C94.8115 22.8163 94.8861 22.3543 95.0355 21.925C95.1895 21.4957 95.4088 21.1247 95.6935 20.812C95.9781 20.4947 96.3258 20.2473 96.7365 20.07C97.1471 19.888 97.6091 19.797 98.1225 19.797C98.5471 19.797 98.9391 19.8693 99.2985 20.014C99.6625 20.154 99.9751 20.3593 100.236 20.63C100.502 20.896 100.71 21.2273 100.859 21.624C101.009 22.016 101.083 22.464 101.083 22.968C101.083 23.164 101.062 23.2947 101.02 23.36C100.978 23.4253 100.899 23.458 100.782 23.458H96.0435C96.0575 23.906 96.1181 24.2957 96.2255 24.627C96.3375 24.9583 96.4915 25.236 96.6875 25.46C96.8835 25.6793 97.1168 25.845 97.3875 25.957C97.6581 26.0643 97.9615 26.118 98.2975 26.118C98.6101 26.118 98.8785 26.083 99.1025 26.013C99.3311 25.9383 99.5271 25.859 99.6905 25.775C99.8538 25.691 99.9891 25.614 100.096 25.544C100.208 25.4693 100.304 25.432 100.383 25.432C100.486 25.432 100.565 25.4717 100.621 25.551L100.971 26.006ZM102.404 26.23C102.404 26.1087 102.425 25.9943 102.467 25.887C102.514 25.7797 102.574 25.6863 102.649 25.607C102.728 25.5277 102.822 25.4647 102.929 25.418C103.036 25.3713 103.151 25.348 103.272 25.348C103.393 25.348 103.508 25.3713 103.615 25.418C103.722 25.4647 103.816 25.5277 103.895 25.607C103.974 25.6863 104.037 25.7797 104.084 25.887C104.131 25.9943 104.154 26.1087 104.154 26.23C104.154 26.356 104.131 26.4727 104.084 26.58C104.037 26.6827 103.974 26.7737 103.895 26.853C103.816 26.9323 103.722 26.993 103.615 27.035C103.508 27.0817 103.393 27.105 103.272 27.105C103.151 27.105 103.036 27.0817 102.929 27.035C102.822 26.993 102.728 26.9323 102.649 26.853C102.574 26.7737 102.514 26.6827 102.467 26.58C102.425 26.4727 102.404 26.356 102.404 26.23ZM105.713 26.23C105.713 26.1087 105.734 25.9943 105.776 25.887C105.822 25.7797 105.883 25.6863 105.958 25.607C106.037 25.5277 106.13 25.4647 106.238 25.418C106.345 25.3713 106.459 25.348 106.581 25.348C106.702 25.348 106.816 25.3713 106.924 25.418C107.031 25.4647 107.124 25.5277 107.204 25.607C107.283 25.6863 107.346 25.7797 107.393 25.887C107.439 25.9943 107.463 26.1087 107.463 26.23C107.463 26.356 107.439 26.4727 107.393 26.58C107.346 26.6827 107.283 26.7737 107.204 26.853C107.124 26.9323 107.031 26.993 106.924 27.035C106.816 27.0817 106.702 27.105 106.581 27.105C106.459 27.105 106.345 27.0817 106.238 27.035C106.13 26.993 106.037 26.9323 105.958 26.853C105.883 26.7737 105.822 26.6827 105.776 26.58C105.734 26.4727 105.713 26.356 105.713 26.23ZM109.021 26.23C109.021 26.1087 109.042 25.9943 109.084 25.887C109.131 25.7797 109.191 25.6863 109.266 25.607C109.345 25.5277 109.439 25.4647 109.546 25.418C109.653 25.3713 109.768 25.348 109.889 25.348C110.01 25.348 110.125 25.3713 110.232 25.418C110.339 25.4647 110.433 25.5277 110.512 25.607C110.591 25.6863 110.654 25.7797 110.701 25.887C110.748 25.9943 110.771 26.1087 110.771 26.23C110.771 26.356 110.748 26.4727 110.701 26.58C110.654 26.6827 110.591 26.7737 110.512 26.853C110.433 26.9323 110.339 26.993 110.232 27.035C110.125 27.0817 110.01 27.105 109.889 27.105C109.768 27.105 109.653 27.0817 109.546 27.035C109.439 26.993 109.345 26.9323 109.266 26.853C109.191 26.7737 109.131 26.6827 109.084 26.58C109.042 26.4727 109.021 26.356 109.021 26.23Z" fill="#9A9CA5"/>
<g clip-path="url(#clip0_2492_17197)">
<path fill-rule="evenodd" clip-rule="evenodd" d="M290.25 16.1663C287.443 16.1663 285.167 18.4422 285.167 21.2497C285.167 24.0571 287.443 26.333 290.25 26.333C291.653 26.333 292.922 25.7658 293.842 24.8467C294.764 23.9259 295.333 22.6549 295.333 21.2497C295.333 18.4422 293.058 16.1663 290.25 16.1663ZM283.833 21.2497C283.833 17.7058 286.706 14.833 290.25 14.833C293.794 14.833 296.667 17.7058 296.667 21.2497C296.667 22.7825 296.129 24.1905 295.232 25.2939L297.971 28.0278C298.232 28.2879 298.232 28.7101 297.972 28.9706C297.712 29.2312 297.29 29.2316 297.029 28.9715L294.289 26.2362C293.186 27.13 291.78 27.6663 290.25 27.6663C286.706 27.6663 283.833 24.7935 283.833 21.2497Z" fill="#9A9CA5"/>
</g>
<defs>
<clipPath id="clip0_2492_17197">
<rect width="16" height="16" fill="white" transform="translate(283 14)"/>
</clipPath>
</defs>
</svg>
